<svg xmlns="http://www.w3.org/2000/svg" xmlns:xlink="http://www.w3.org/1999/xlink" preserveAspectRatio="xMidYMid" width="807" height="537" viewBox="0 0 807 537">
  <path d="M806.987,371.000 C806.448,462.770 731.897,537.000 640.000,537.000 C548.103,537.000 473.552,462.770 473.013,371.000 L515.677,371.000 L622.397,121.000 L506.788,121.000 C513.287,109.297 517.000,95.835 517.000,81.500 C517.000,66.753 513.063,52.934 506.213,41.000 L762.000,41.000 L762.000,121.000 L656.582,121.000 L763.302,371.000 L806.987,371.000 ZM639.494,208.995 L570.993,370.995 L707.996,370.995 L639.494,208.995 ZM405.500,163.000 C360.489,163.000 324.000,126.511 324.000,81.500 C324.000,36.489 360.489,-0.000 405.500,-0.000 C450.511,-0.000 487.000,36.489 487.000,81.500 C487.000,126.511 450.511,163.000 405.500,163.000 ZM299.212,121.000 L183.582,121.000 L290.302,371.000 L333.987,371.000 C333.448,462.770 258.897,537.000 167.000,537.000 C75.103,537.000 0.552,462.770 0.013,371.000 L42.678,371.000 L149.397,121.000 L44.000,121.000 L44.000,41.000 L299.787,41.000 C292.937,52.934 289.000,66.753 289.000,81.500 C289.000,95.835 292.713,109.297 299.212,121.000 ZM97.993,370.995 L234.996,370.995 L166.494,208.995 L97.993,370.995 Z" style="fill: #c2984f; fill-rule: evenodd;"/>
</svg>
